<svg xmlns="http://www.w3.org/2000/svg" width="900" height="480" viewBox="0 0 900 480">
<style>
.title{font:700 20px -apple-system,BlinkMacSystemFont,Segoe UI,Arial;fill:#111}
.subtitle{font:400 13px -apple-system,BlinkMacSystemFont,Segoe UI,Arial;fill:#444}
.axis{stroke:#333;stroke-width:1}
.grid{stroke:#ddd;stroke-width:1}
.tick{font:12px -apple-system,BlinkMacSystemFont,Segoe UI,Arial;fill:#333}
.label{font:13px -apple-system,BlinkMacSystemFont,Segoe UI,Arial;fill:#111}
.value{font:12px -apple-system,BlinkMacSystemFont,Segoe UI,Arial;fill:#111}
</style>
<rect x="0" y="0" width="900" height="480" fill="#fff"/>
<text class="title" x="90" y="34">NoC 拓扑下的 Chiplet 总周期（BookSim 估算互联延迟）</text>
<text class="subtitle" x="90" y="56">指标：ChipletPlatform_cycles（越小越好）；工作负载：内置 Attention + MoE + SwiGLU</text>
<line class="axis" x1="90" y1="70" x2="90" y2="370"/>
<line class="axis" x1="90" y1="370" x2="870" y2="370"/>
<line class="grid" x1="90" y1="370.0" x2="870" y2="370.0"/>
<text class="tick" x="80" y="374.0" text-anchor="end">0</text>
<line class="grid" x1="90" y1="327.14285714285717" x2="870" y2="327.14285714285717"/>
<text class="tick" x="80" y="331.14285714285717" text-anchor="end">1000</text>
<line class="grid" x1="90" y1="284.2857142857143" x2="870" y2="284.2857142857143"/>
<text class="tick" x="80" y="288.2857142857143" text-anchor="end">2000</text>
<line class="grid" x1="90" y1="241.42857142857142" x2="870" y2="241.42857142857142"/>
<text class="tick" x="80" y="245.42857142857142" text-anchor="end">3000</text>
<line class="grid" x1="90" y1="198.57142857142858" x2="870" y2="198.57142857142858"/>
<text class="tick" x="80" y="202.57142857142858" text-anchor="end">4000</text>
<line class="grid" x1="90" y1="155.71428571428572" x2="870" y2="155.71428571428572"/>
<text class="tick" x="80" y="159.71428571428572" text-anchor="end">5000</text>
<line class="grid" x1="90" y1="112.85714285714286" x2="870" y2="112.85714285714286"/>
<text class="tick" x="80" y="116.85714285714286" text-anchor="end">6000</text>
<line class="grid" x1="90" y1="70.0" x2="870" y2="70.0"/>
<text class="tick" x="80" y="74.0" text-anchor="end">7000</text>
<rect x="118.0" y="185.02857142857144" width="222.66666666666666" height="184.97142857142856" fill="#4C78A8" rx="6"/>
<text class="value" x="229.33333333333331" y="177.02857142857144" text-anchor="middle">4316</text>
<text class="label" x="229.33333333333331" y="400" text-anchor="middle">Mesh 8x8</text>
<rect x="368.66666666666663" y="165.74285714285713" width="222.66666666666666" height="204.25714285714287" fill="#F58518" rx="6"/>
<text class="value" x="479.99999999999994" y="157.74285714285713" text-anchor="middle">4766</text>
<text class="label" x="479.99999999999994" y="400" text-anchor="middle">CMesh 4x4,c=4</text>
<rect x="619.3333333333333" y="79.94285714285715" width="222.66666666666666" height="290.0571428571428" fill="#54A24B" rx="6"/>
<text class="value" x="730.6666666666666" y="71.94285714285715" text-anchor="middle">6768</text>
<text class="label" x="730.6666666666666" y="400" text-anchor="middle">FlatFly k=4,n=2</text>
<text class="label" x="480.0" y="458" text-anchor="middle">BookSim 配置拓扑</text>
<text class="label" x="18" y="220.0" transform="rotate(-90, 18, 220.0)" text-anchor="middle">总周期（cycles）</text>
</svg>