<svg xmlns="http://www.w3.org/2000/svg" width="960" height="520" viewBox="0 0 960 520">
<style>
.axis{stroke:#000;stroke-width:1}
.grid{stroke:#d0d0d0;stroke-width:1}
.tick{font:12px -apple-system,BlinkMacSystemFont,Segoe UI,Arial;fill:#111}
.label{font:12px -apple-system,BlinkMacSystemFont,Segoe UI,Arial;fill:#111}
.axislabel{font:13px -apple-system,BlinkMacSystemFont,Segoe UI,Arial;fill:#111}
.value{font:12px -apple-system,BlinkMacSystemFont,Segoe UI,Arial;fill:#111}
</style>
<rect x="0" y="0" width="960" height="520" fill="#fff"/>
<line class="axis" x1="90" y1="40" x2="90" y2="380"/>
<line class="axis" x1="90" y1="380" x2="930" y2="380"/>
<text class="axislabel" x="510.00" y="508.00" text-anchor="middle">NoC topology (category)</text>
<text class="axislabel" x="26.00" y="210.00" text-anchor="middle" transform="rotate(-90 26.00 210.00)">Total cycles (clock cycles)</text>
<line class="grid" x1="90" y1="380.00" x2="930" y2="380.00"/>
<text class="tick" x="80" y="384.00" text-anchor="end">0</text>
<line class="grid" x1="90" y1="331.43" x2="930" y2="331.43"/>
<text class="tick" x="80" y="335.43" text-anchor="end">1000</text>
<line class="grid" x1="90" y1="282.86" x2="930" y2="282.86"/>
<text class="tick" x="80" y="286.86" text-anchor="end">2000</text>
<line class="grid" x1="90" y1="234.29" x2="930" y2="234.29"/>
<text class="tick" x="80" y="238.29" text-anchor="end">3000</text>
<line class="grid" x1="90" y1="185.71" x2="930" y2="185.71"/>
<text class="tick" x="80" y="189.71" text-anchor="end">4000</text>
<line class="grid" x1="90" y1="137.14" x2="930" y2="137.14"/>
<text class="tick" x="80" y="141.14" text-anchor="end">5000</text>
<line class="grid" x1="90" y1="88.57" x2="930" y2="88.57"/>
<text class="tick" x="80" y="92.57" text-anchor="end">6000</text>
<line class="grid" x1="90" y1="40.00" x2="930" y2="40.00"/>
<text class="tick" x="80" y="44.00" text-anchor="end">7000</text>
<rect x="108.00" y="175.61" width="84.00" height="204.39" fill="#404040" stroke="#000" stroke-width="1"/>
<text class="value" x="150.00" y="169.61" text-anchor="middle">4208</text>
<text class="label" x="150.00" y="416.00" text-anchor="end" transform="rotate(-45 150.00 416.00)">Fly k=8,n=2</text>
<rect x="228.00" y="173.96" width="84.00" height="206.04" fill="#595959" stroke="#000" stroke-width="1"/>
<text class="value" x="270.00" y="167.96" text-anchor="middle">4242</text>
<text class="label" x="270.00" y="416.00" text-anchor="end" transform="rotate(-45 270.00 416.00)">FatTree k=4,n=3</text>
<rect x="348.00" y="173.96" width="84.00" height="206.04" fill="#737373" stroke="#000" stroke-width="1"/>
<text class="value" x="390.00" y="167.96" text-anchor="middle">4242</text>
<text class="label" x="390.00" y="416.00" text-anchor="end" transform="rotate(-45 390.00 416.00)">Tree4 k=4,n=3</text>
<rect x="468.00" y="170.37" width="84.00" height="209.63" fill="#8C8C8C" stroke="#000" stroke-width="1"/>
<text class="value" x="510.00" y="164.37" text-anchor="middle">4316</text>
<text class="label" x="510.00" y="416.00" text-anchor="end" transform="rotate(-45 510.00 416.00)">Mesh 8x8</text>
<rect x="588.00" y="148.51" width="84.00" height="231.49" fill="#A6A6A6" stroke="#000" stroke-width="1"/>
<text class="value" x="630.00" y="142.51" text-anchor="middle">4766</text>
<text class="label" x="630.00" y="416.00" text-anchor="end" transform="rotate(-45 630.00 416.00)">CMesh 4x4,c=4</text>
<rect x="708.00" y="144.77" width="84.00" height="235.23" fill="#BFBFBF" stroke="#000" stroke-width="1"/>
<text class="value" x="750.00" y="138.77" text-anchor="middle">4843</text>
<text class="label" x="750.00" y="416.00" text-anchor="end" transform="rotate(-45 750.00 416.00)">Torus 8x8</text>
<rect x="828.00" y="51.27" width="84.00" height="328.73" fill="#D9D9D9" stroke="#000" stroke-width="1"/>
<text class="value" x="870.00" y="45.27" text-anchor="middle">6768</text>
<text class="label" x="870.00" y="416.00" text-anchor="end" transform="rotate(-45 870.00 416.00)">FlatFly k=4,n=2</text>
</svg>
