<svg xmlns="http://www.w3.org/2000/svg" width="960" height="520" viewBox="0 0 960 520">
<style>
.title{font:700 20px -apple-system,BlinkMacSystemFont,Segoe UI,Arial;fill:#111}
.subtitle{font:400 13px -apple-system,BlinkMacSystemFont,Segoe UI,Arial;fill:#333}
.axis{stroke:#000;stroke-width:1}
.grid{stroke:#d0d0d0;stroke-width:1}
.tick{font:12px -apple-system,BlinkMacSystemFont,Segoe UI,Arial;fill:#111}
.label{font:12px -apple-system,BlinkMacSystemFont,Segoe UI,Arial;fill:#111}
.value{font:12px -apple-system,BlinkMacSystemFont,Segoe UI,Arial;fill:#111}
</style>
<rect x="0" y="0" width="960" height="520" fill="#fff"/>
<text class="title" x="90" y="34">不同 NoC 拓扑下的 Chiplet 总周期对比（黑白图）</text>
<text class="subtitle" x="90" y="56">指标：ChipletPlatform_cycles（越小越好）；工作负载：内置 Attention + MoE + SwiGLU；BookSim2 估算互联延迟</text>
<line class="axis" x1="90" y1="80" x2="90" y2="380"/>
<line class="axis" x1="90" y1="380" x2="930" y2="380"/>
<line class="grid" x1="90" y1="380.00" x2="930" y2="380.00"/>
<text class="tick" x="80" y="384.00" text-anchor="end">0</text>
<line class="grid" x1="90" y1="337.14" x2="930" y2="337.14"/>
<text class="tick" x="80" y="341.14" text-anchor="end">1000</text>
<line class="grid" x1="90" y1="294.29" x2="930" y2="294.29"/>
<text class="tick" x="80" y="298.29" text-anchor="end">2000</text>
<line class="grid" x1="90" y1="251.43" x2="930" y2="251.43"/>
<text class="tick" x="80" y="255.43" text-anchor="end">3000</text>
<line class="grid" x1="90" y1="208.57" x2="930" y2="208.57"/>
<text class="tick" x="80" y="212.57" text-anchor="end">4000</text>
<line class="grid" x1="90" y1="165.71" x2="930" y2="165.71"/>
<text class="tick" x="80" y="169.71" text-anchor="end">5000</text>
<line class="grid" x1="90" y1="122.86" x2="930" y2="122.86"/>
<text class="tick" x="80" y="126.86" text-anchor="end">6000</text>
<line class="grid" x1="90" y1="80.00" x2="930" y2="80.00"/>
<text class="tick" x="80" y="84.00" text-anchor="end">7000</text>
<rect x="108.00" y="199.66" width="84.00" height="180.34" fill="#404040" stroke="#000" stroke-width="1"/>
<text class="value" x="150.00" y="193.66" text-anchor="middle">4208</text>
<text class="label" x="150.00" y="416.00" text-anchor="end" transform="rotate(-45 150.00 416.00)">Fly k=8,n=2</text>
<rect x="228.00" y="198.20" width="84.00" height="181.80" fill="#595959" stroke="#000" stroke-width="1"/>
<text class="value" x="270.00" y="192.20" text-anchor="middle">4242</text>
<text class="label" x="270.00" y="416.00" text-anchor="end" transform="rotate(-45 270.00 416.00)">FatTree k=4,n=3</text>
<rect x="348.00" y="198.20" width="84.00" height="181.80" fill="#737373" stroke="#000" stroke-width="1"/>
<text class="value" x="390.00" y="192.20" text-anchor="middle">4242</text>
<text class="label" x="390.00" y="416.00" text-anchor="end" transform="rotate(-45 390.00 416.00)">Tree4 k=4,n=3</text>
<rect x="468.00" y="195.03" width="84.00" height="184.97" fill="#8C8C8C" stroke="#000" stroke-width="1"/>
<text class="value" x="510.00" y="189.03" text-anchor="middle">4316</text>
<text class="label" x="510.00" y="416.00" text-anchor="end" transform="rotate(-45 510.00 416.00)">Mesh 8x8</text>
<rect x="588.00" y="175.74" width="84.00" height="204.26" fill="#A6A6A6" stroke="#000" stroke-width="1"/>
<text class="value" x="630.00" y="169.74" text-anchor="middle">4766</text>
<text class="label" x="630.00" y="416.00" text-anchor="end" transform="rotate(-45 630.00 416.00)">CMesh 4x4,c=4</text>
<rect x="708.00" y="172.44" width="84.00" height="207.56" fill="#BFBFBF" stroke="#000" stroke-width="1"/>
<text class="value" x="750.00" y="166.44" text-anchor="middle">4843</text>
<text class="label" x="750.00" y="416.00" text-anchor="end" transform="rotate(-45 750.00 416.00)">Torus 8x8</text>
<rect x="828.00" y="89.94" width="84.00" height="290.06" fill="#D9D9D9" stroke="#000" stroke-width="1"/>
<text class="value" x="870.00" y="83.94" text-anchor="middle">6768</text>
<text class="label" x="870.00" y="416.00" text-anchor="end" transform="rotate(-45 870.00 416.00)">FlatFly k=4,n=2</text>
</svg>
